<?xml version="1.0" encoding="utf-8"?>
<!-- Generator: Adobe Illustrator 16.0.0, SVG Export Plug-In . SVG Version: 6.00 Build 0)  -->
<!DOCTYPE svg PUBLIC "-//W3C//DTD SVG 1.1//EN" "http://www.w3.org/Graphics/SVG/1.1/DTD/svg11.dtd">
<svg version="1.1" id="Layer_1" xmlns="http://www.w3.org/2000/svg" xmlns:xlink="http://www.w3.org/1999/xlink" x="0px" y="0px"
	 width="25px" height="25px" viewBox="0 0 25 25" enable-background="new 0 0 25 25" xml:space="preserve">
<path fill="#FFFFFF" d="M1.96,0C1.96,0,0,0,0,1.961v21.078C0,23.039,0,25,1.96,25h21.079c0,0,1.961,0,1.961-1.961V1.961
	C25,1.961,25,0,23.039,0H1.96z"/>
<g>
	<path fill="#231F20" d="M18.518,19.284h0.556v-1.188c0-0.112,0.019-0.217,0.056-0.313c0.036-0.096,0.089-0.18,0.156-0.249
		s0.148-0.124,0.243-0.165c0.095-0.04,0.198-0.061,0.311-0.061c0.162,0.008,0.281,0.056,0.358,0.142
		c0.077,0.087,0.12,0.19,0.128,0.311v1.523h0.55v-1.785c-0.008-0.22-0.086-0.398-0.234-0.535s-0.349-0.205-0.6-0.205
		c-0.243,0-0.446,0.063-0.607,0.19c-0.163,0.128-0.288,0.296-0.377,0.505c-0.008-0.108-0.017-0.206-0.026-0.293
		s-0.019-0.2-0.025-0.339h-0.487V19.284z M17.094,16.464c0.119-0.128,0.238-0.258,0.358-0.389c0.12-0.132,0.237-0.263,0.354-0.395
		h-0.597c-0.089,0.132-0.177,0.263-0.264,0.395c-0.087,0.131-0.175,0.261-0.264,0.389H17.094z M15.992,17.764
		c0.039-0.091,0.092-0.17,0.159-0.238c0.067-0.067,0.147-0.121,0.238-0.161c0.09-0.041,0.188-0.062,0.292-0.062
		s0.202,0.021,0.293,0.062c0.091,0.04,0.17,0.094,0.237,0.161c0.067,0.068,0.121,0.147,0.162,0.238s0.061,0.188,0.061,0.292
		s-0.02,0.202-0.061,0.293s-0.095,0.17-0.162,0.237s-0.146,0.12-0.237,0.159c-0.091,0.038-0.188,0.058-0.293,0.058
		s-0.202-0.02-0.292-0.058c-0.091-0.039-0.171-0.092-0.238-0.159s-0.12-0.146-0.159-0.237c-0.038-0.091-0.058-0.188-0.058-0.293
		S15.954,17.854,15.992,17.764 M15.489,18.58c0.068,0.16,0.162,0.297,0.28,0.411c0.118,0.113,0.256,0.202,0.414,0.264
		s0.328,0.093,0.51,0.093c0.189,0,0.363-0.034,0.521-0.102s0.295-0.16,0.411-0.278c0.116-0.117,0.206-0.256,0.27-0.414
		s0.096-0.326,0.096-0.504s-0.033-0.344-0.099-0.501c-0.065-0.156-0.155-0.293-0.27-0.408s-0.25-0.207-0.408-0.275
		c-0.158-0.067-0.33-0.102-0.516-0.102c-0.182,0-0.353,0.034-0.513,0.102c-0.16,0.068-0.301,0.16-0.42,0.275
		s-0.214,0.252-0.281,0.408c-0.067,0.157-0.101,0.323-0.101,0.501C15.385,18.243,15.419,18.42,15.489,18.58 M10.797,19.284h0.556
		v-1.188c0-0.229,0.063-0.416,0.188-0.565c0.125-0.148,0.302-0.223,0.53-0.223c0.166,0.008,0.287,0.056,0.362,0.142
		c0.075,0.087,0.117,0.19,0.125,0.311v1.523h0.556v-1.183c0-0.23,0.062-0.421,0.188-0.57c0.126-0.148,0.303-0.223,0.53-0.223
		c0.17,0.008,0.291,0.056,0.365,0.142c0.073,0.087,0.113,0.19,0.121,0.311v1.523h0.557v-1.785c-0.008-0.22-0.087-0.398-0.238-0.535
		c-0.15-0.137-0.353-0.205-0.607-0.205c-0.124,0-0.231,0.016-0.325,0.049c-0.092,0.033-0.174,0.078-0.245,0.136
		c-0.071,0.059-0.137,0.128-0.194,0.209s-0.11,0.17-0.156,0.267c-0.027-0.197-0.113-0.356-0.258-0.479
		c-0.145-0.121-0.338-0.182-0.582-0.182c-0.247,0.004-0.441,0.068-0.582,0.193s-0.258,0.293-0.351,0.502
		c-0.004-0.055-0.007-0.104-0.011-0.151c-0.004-0.047-0.008-0.094-0.012-0.142c-0.004-0.049-0.008-0.1-0.012-0.153
		c-0.003-0.055-0.007-0.116-0.012-0.186h-0.492V19.284z M8.089,17.752c0.037-0.091,0.088-0.17,0.156-0.238
		c0.067-0.067,0.148-0.119,0.241-0.156c0.093-0.036,0.195-0.055,0.307-0.055c0.112,0,0.214,0.02,0.307,0.059
		c0.093,0.038,0.173,0.09,0.24,0.156c0.068,0.065,0.12,0.144,0.156,0.234c0.037,0.091,0.055,0.188,0.055,0.292
		s-0.018,0.203-0.055,0.296c-0.037,0.093-0.088,0.174-0.156,0.243c-0.067,0.069-0.147,0.123-0.24,0.162
		c-0.093,0.038-0.195,0.058-0.307,0.058c-0.112,0-0.214-0.02-0.307-0.058c-0.093-0.039-0.173-0.092-0.241-0.159
		c-0.068-0.067-0.12-0.147-0.156-0.24s-0.055-0.193-0.055-0.302C8.034,17.939,8.053,17.843,8.089,17.752 M7.568,18.562
		c0.063,0.152,0.153,0.287,0.269,0.402c0.116,0.116,0.253,0.209,0.411,0.278c0.159,0.069,0.333,0.104,0.521,0.104
		c0.12,0,0.225-0.013,0.315-0.038s0.169-0.055,0.234-0.09c0.066-0.034,0.118-0.07,0.157-0.106c0.039-0.037,0.065-0.065,0.081-0.084
		c0,0.008-0.001,0.02-0.003,0.037s-0.003,0.035-0.003,0.056v0.162h0.562v-2.462H9.575l-0.023,0.295
		c-0.012-0.022-0.037-0.055-0.075-0.095c-0.039-0.041-0.092-0.08-0.16-0.119c-0.067-0.038-0.147-0.072-0.24-0.102
		c-0.092-0.029-0.197-0.043-0.312-0.043c-0.174,0-0.339,0.035-0.495,0.106c-0.157,0.072-0.293,0.167-0.412,0.287
		c-0.118,0.12-0.211,0.26-0.281,0.42c-0.069,0.16-0.104,0.329-0.104,0.507C7.473,18.249,7.504,18.41,7.568,18.562 M4.994,15.728
		h0.573c0.15,0,0.274,0.025,0.371,0.075s0.173,0.112,0.229,0.186s0.094,0.151,0.116,0.234c0.021,0.083,0.032,0.157,0.032,0.223
		c0,0.07-0.011,0.146-0.035,0.229c-0.023,0.083-0.063,0.16-0.122,0.23c-0.058,0.072-0.135,0.133-0.231,0.184
		c-0.097,0.05-0.218,0.075-0.365,0.075H4.994V15.728z M4.994,19.284V17.83h0.591h0.058c0.143,0.216,0.292,0.445,0.446,0.687
		c0.155,0.241,0.318,0.497,0.493,0.768h0.851c-0.104-0.162-0.201-0.313-0.289-0.452c-0.089-0.139-0.175-0.274-0.258-0.405
		c-0.083-0.132-0.166-0.262-0.247-0.391c-0.081-0.13-0.164-0.262-0.249-0.397c0.112-0.065,0.209-0.144,0.29-0.234
		c0.081-0.091,0.146-0.19,0.197-0.298c0.05-0.108,0.087-0.221,0.11-0.336c0.023-0.116,0.035-0.232,0.035-0.348
		c0-0.213-0.037-0.403-0.11-0.574c-0.074-0.169-0.177-0.312-0.31-0.429c-0.134-0.115-0.295-0.204-0.487-0.266
		s-0.402-0.093-0.634-0.093H4.287v4.223H4.994z"/>
	<path d="M16.693,19.378c-0.184,0-0.359-0.031-0.521-0.095c-0.159-0.062-0.302-0.152-0.425-0.27
		c-0.121-0.118-0.218-0.26-0.287-0.422c-0.071-0.161-0.106-0.344-0.106-0.542c0-0.184,0.033-0.352,0.103-0.513
		c0.068-0.159,0.166-0.3,0.288-0.419c0.121-0.116,0.266-0.211,0.43-0.281c0.164-0.069,0.34-0.104,0.524-0.104
		c0.188,0,0.365,0.034,0.527,0.104c0.161,0.069,0.302,0.164,0.418,0.282c0.116,0.117,0.209,0.258,0.276,0.418
		c0.067,0.161,0.101,0.333,0.101,0.513s-0.032,0.354-0.098,0.516s-0.158,0.305-0.276,0.424c-0.118,0.121-0.26,0.217-0.421,0.285
		C17.064,19.344,16.886,19.378,16.693,19.378z M16.699,16.794c-0.176,0-0.345,0.034-0.501,0.1c-0.157,0.067-0.295,0.157-0.41,0.27
		c-0.117,0.112-0.209,0.247-0.274,0.397c-0.066,0.154-0.099,0.314-0.099,0.489c0,0.189,0.035,0.364,0.103,0.518
		c0.065,0.155,0.158,0.29,0.273,0.401c0.116,0.112,0.252,0.198,0.403,0.258c0.155,0.06,0.323,0.091,0.499,0.091
		c0.184,0,0.355-0.034,0.51-0.1c0.153-0.065,0.288-0.156,0.401-0.271c0.112-0.113,0.2-0.249,0.263-0.404
		c0.062-0.154,0.094-0.32,0.094-0.492c0-0.174-0.032-0.334-0.097-0.489c-0.064-0.153-0.152-0.287-0.263-0.398
		c-0.111-0.112-0.246-0.202-0.398-0.269C17.049,16.828,16.879,16.794,16.699,16.794z M8.77,19.378c-0.191,0-0.371-0.035-0.534-0.106
		c-0.161-0.07-0.302-0.166-0.42-0.285c-0.118-0.117-0.211-0.256-0.276-0.412c-0.065-0.155-0.098-0.321-0.098-0.495
		c0-0.181,0.036-0.355,0.106-0.519c0.071-0.163,0.168-0.308,0.287-0.43c0.121-0.123,0.258-0.219,0.421-0.294
		c0.159-0.072,0.33-0.108,0.508-0.108c0.121,0,0.229,0.015,0.322,0.044c0.094,0.03,0.177,0.064,0.246,0.104
		c0.073,0.041,0.127,0.082,0.167,0.124c0.01,0.011,0.02,0.021,0.028,0.031l0.017-0.212c0.001-0.017,0.015-0.028,0.031-0.028h0.539
		c0.017,0,0.031,0.014,0.031,0.03v2.462c0,0.017-0.014,0.03-0.031,0.03H9.552c-0.017,0-0.031-0.014-0.031-0.03v-0.162
		c0-0.003,0-0.006,0-0.01c-0.007,0.008-0.015,0.016-0.023,0.023c-0.042,0.039-0.098,0.077-0.164,0.111
		c-0.065,0.035-0.144,0.065-0.24,0.092C9,19.365,8.892,19.378,8.77,19.378z M8.764,16.789c-0.169,0-0.332,0.035-0.482,0.104
		c-0.155,0.071-0.287,0.163-0.402,0.28c-0.114,0.116-0.207,0.255-0.274,0.411c-0.067,0.155-0.102,0.321-0.102,0.494
		c0,0.165,0.031,0.324,0.093,0.472c0.062,0.148,0.15,0.28,0.262,0.393c0.113,0.113,0.249,0.204,0.402,0.271
		c0.155,0.067,0.326,0.103,0.509,0.103c0.116,0,0.219-0.013,0.307-0.037c0.092-0.026,0.167-0.055,0.228-0.088
		c0.062-0.032,0.112-0.066,0.15-0.102c0.034-0.033,0.062-0.062,0.079-0.081C9.542,19,9.555,18.996,9.568,19
		c0.012,0.005,0.02,0.017,0.02,0.029c0,0.009-0.001,0.021-0.003,0.04c-0.001,0.017-0.002,0.033-0.002,0.053v0.132h0.5v-2.401h-0.48
		l-0.021,0.267c-0.001,0.014-0.011,0.025-0.024,0.028c-0.002,0-0.004,0-0.006,0c-0.011,0-0.022-0.006-0.027-0.016
		c-0.006-0.013-0.024-0.04-0.07-0.088c-0.036-0.038-0.086-0.075-0.153-0.114c-0.065-0.037-0.144-0.07-0.234-0.099
		C8.98,16.804,8.878,16.789,8.764,16.789z M20.875,19.314h-0.55c-0.017,0-0.03-0.014-0.03-0.03v-1.523
		c-0.008-0.11-0.048-0.208-0.121-0.29c-0.071-0.08-0.185-0.124-0.337-0.132c-0.104,0-0.205,0.02-0.297,0.059
		c-0.091,0.039-0.169,0.093-0.232,0.158c-0.065,0.066-0.115,0.146-0.15,0.238c-0.035,0.093-0.054,0.194-0.054,0.303v1.188
		c0,0.017-0.014,0.03-0.03,0.03h-0.556c-0.017,0-0.03-0.014-0.03-0.03v-2.462c0-0.017,0.014-0.03,0.03-0.03h0.487
		c0.017,0,0.03,0.013,0.03,0.028c0.007,0.133,0.016,0.247,0.025,0.337c0.007,0.056,0.013,0.115,0.018,0.179
		c0.086-0.165,0.199-0.303,0.337-0.411c0.165-0.131,0.376-0.196,0.626-0.196c0.258,0,0.467,0.071,0.62,0.213
		c0.154,0.142,0.236,0.329,0.244,0.557v1.786C20.905,19.301,20.892,19.314,20.875,19.314z M20.355,19.254h0.489v-1.755
		c-0.008-0.209-0.083-0.382-0.225-0.513c-0.143-0.131-0.337-0.197-0.579-0.197c-0.235,0-0.434,0.062-0.589,0.185
		c-0.157,0.123-0.28,0.289-0.367,0.492c-0.006,0.014-0.018,0.019-0.033,0.019c-0.014-0.002-0.024-0.014-0.025-0.028
		c-0.008-0.107-0.017-0.205-0.026-0.291s-0.018-0.19-0.024-0.312h-0.428v2.401h0.495v-1.157c0-0.115,0.019-0.225,0.058-0.324
		c0.037-0.1,0.092-0.188,0.162-0.26c0.069-0.071,0.155-0.129,0.254-0.172c0.099-0.042,0.207-0.062,0.322-0.062
		c0.17,0.008,0.298,0.059,0.381,0.151c0.082,0.092,0.128,0.203,0.136,0.329V19.254z M14.875,19.314h-0.557
		c-0.017,0-0.03-0.014-0.03-0.03v-1.523c-0.008-0.111-0.046-0.21-0.114-0.291c-0.068-0.079-0.185-0.123-0.343-0.131
		c-0.216,0-0.387,0.071-0.506,0.212c-0.119,0.144-0.181,0.328-0.181,0.551v1.183c0,0.017-0.014,0.03-0.03,0.03h-0.556
		c-0.017,0-0.031-0.014-0.031-0.03v-1.523c-0.007-0.11-0.046-0.209-0.117-0.29c-0.069-0.08-0.184-0.124-0.34-0.132
		c-0.219,0-0.385,0.069-0.505,0.212c-0.122,0.146-0.181,0.324-0.181,0.546v1.188c0,0.017-0.014,0.03-0.031,0.03h-0.556
		c-0.017,0-0.031-0.014-0.031-0.03v-2.462c0-0.017,0.014-0.03,0.031-0.03h0.492c0.016,0,0.03,0.012,0.031,0.028l0.012,0.186
		c0.004,0.054,0.008,0.104,0.012,0.152l0.003,0.042c0.002,0.034,0.005,0.066,0.008,0.1c0.001,0.012,0.002,0.024,0.003,0.037
		c0.085-0.166,0.189-0.303,0.308-0.408c0.146-0.129,0.349-0.196,0.602-0.2c0.25,0,0.453,0.063,0.602,0.188
		c0.127,0.107,0.212,0.244,0.252,0.407c0.035-0.065,0.074-0.129,0.117-0.189c0.058-0.081,0.125-0.153,0.2-0.215
		c0.073-0.06,0.158-0.106,0.254-0.142c0.097-0.033,0.206-0.05,0.336-0.05c0.262,0,0.473,0.071,0.628,0.213
		c0.157,0.142,0.24,0.328,0.248,0.557v1.786C14.905,19.301,14.892,19.314,14.875,19.314z M14.349,19.254h0.496v-1.755
		c-0.008-0.21-0.085-0.383-0.229-0.513c-0.144-0.131-0.342-0.197-0.587-0.197c-0.122,0-0.226,0.016-0.315,0.048
		c-0.089,0.032-0.168,0.076-0.235,0.13c-0.071,0.059-0.135,0.127-0.188,0.203c-0.059,0.082-0.11,0.17-0.154,0.262
		c-0.006,0.014-0.02,0.019-0.032,0.018c-0.014-0.002-0.023-0.013-0.025-0.026c-0.026-0.19-0.107-0.341-0.248-0.459
		c-0.138-0.115-0.328-0.175-0.562-0.175c-0.238,0.004-0.427,0.066-0.562,0.187c-0.137,0.12-0.252,0.286-0.343,0.491
		c-0.006,0.013-0.022,0.017-0.033,0.018c-0.014-0.003-0.024-0.014-0.025-0.028l-0.002-0.026c-0.003-0.044-0.006-0.085-0.009-0.124
		c-0.003-0.033-0.005-0.066-0.008-0.101l-0.003-0.041c-0.004-0.05-0.008-0.101-0.012-0.154l-0.01-0.157h-0.432v2.401h0.494v-1.157
		c0-0.233,0.066-0.431,0.196-0.585c0.131-0.155,0.317-0.233,0.554-0.233c0.175,0.008,0.304,0.059,0.385,0.151
		c0.08,0.092,0.124,0.203,0.132,0.329v1.495h0.495v-1.152c0-0.237,0.065-0.436,0.194-0.59c0.132-0.155,0.317-0.233,0.554-0.233
		c0.178,0.008,0.309,0.059,0.389,0.151c0.077,0.092,0.12,0.202,0.128,0.329V19.254z M7.432,19.314H6.581
		c-0.01,0-0.02-0.005-0.026-0.014c-0.132-0.204-0.258-0.4-0.378-0.588l-0.115-0.18c-0.153-0.239-0.3-0.466-0.437-0.673H5.024v1.424
		c0,0.017-0.014,0.03-0.031,0.03H4.287c-0.017,0-0.031-0.014-0.031-0.03v-4.223c0-0.017,0.014-0.03,0.031-0.03H5.48
		c0.232,0,0.449,0.031,0.644,0.094c0.193,0.062,0.36,0.153,0.498,0.271c0.136,0.119,0.243,0.267,0.318,0.439
		c0.074,0.176,0.112,0.373,0.112,0.587c0,0.116-0.012,0.235-0.035,0.354c-0.024,0.118-0.062,0.233-0.113,0.343
		c-0.051,0.109-0.119,0.213-0.202,0.306c-0.076,0.085-0.167,0.16-0.271,0.224c0.08,0.127,0.157,0.25,0.232,0.371l0.28,0.443
		c0.072,0.115,0.147,0.232,0.224,0.353c0.088,0.139,0.185,0.29,0.289,0.452c0.006,0.01,0.006,0.021,0.001,0.031
		S7.443,19.314,7.432,19.314z M6.598,19.254h0.778c-0.093-0.145-0.179-0.28-0.259-0.405c-0.077-0.12-0.152-0.238-0.224-0.353
		l-0.28-0.443c-0.078-0.126-0.159-0.254-0.242-0.386l-0.007-0.012c-0.004-0.007-0.006-0.016-0.004-0.023
		c0.002-0.009,0.007-0.016,0.014-0.02c0.11-0.064,0.205-0.141,0.283-0.229c0.079-0.089,0.143-0.187,0.192-0.29
		c0.049-0.105,0.085-0.216,0.108-0.329c0.023-0.114,0.034-0.229,0.034-0.342c0-0.206-0.036-0.395-0.107-0.562
		c-0.072-0.164-0.173-0.305-0.302-0.417c-0.131-0.113-0.291-0.2-0.476-0.26c-0.188-0.061-0.399-0.092-0.625-0.092H4.317v4.162h0.646
		V17.83c0-0.017,0.014-0.03,0.031-0.03h0.648c0.01,0,0.02,0.005,0.025,0.014c0.14,0.211,0.29,0.441,0.446,0.687l0.115,0.18
		C6.346,18.863,6.469,19.055,6.598,19.254z M16.682,18.833c-0.107,0-0.21-0.02-0.304-0.06c-0.096-0.041-0.18-0.097-0.248-0.166
		c-0.069-0.069-0.125-0.152-0.166-0.247c-0.04-0.095-0.06-0.197-0.06-0.305c0-0.106,0.02-0.209,0.06-0.304
		c0.041-0.095,0.097-0.178,0.166-0.248c0.069-0.069,0.152-0.126,0.247-0.168c0.188-0.084,0.421-0.084,0.61,0
		c0.094,0.042,0.177,0.098,0.246,0.168s0.126,0.153,0.169,0.247c0.042,0.095,0.062,0.194,0.062,0.305
		c0,0.109-0.021,0.213-0.062,0.306c-0.043,0.095-0.1,0.177-0.169,0.246s-0.152,0.125-0.247,0.166
		C16.892,18.813,16.789,18.833,16.682,18.833z M16.682,17.333c-0.1,0-0.194,0.021-0.279,0.06c-0.088,0.039-0.165,0.091-0.229,0.154
		c-0.064,0.066-0.114,0.141-0.152,0.229c-0.037,0.089-0.056,0.181-0.056,0.28s0.019,0.193,0.056,0.281
		c0.037,0.087,0.089,0.164,0.152,0.228s0.141,0.114,0.229,0.152c0.174,0.074,0.386,0.074,0.562,0
		c0.087-0.037,0.163-0.089,0.228-0.152c0.063-0.064,0.116-0.141,0.155-0.229c0.039-0.085,0.059-0.18,0.059-0.28
		c0-0.102-0.02-0.193-0.059-0.279c-0.039-0.089-0.091-0.163-0.155-0.229c-0.064-0.064-0.142-0.116-0.229-0.154
		C16.876,17.354,16.781,17.333,16.682,17.333z M8.793,18.833c-0.114,0-0.222-0.02-0.318-0.06c-0.097-0.041-0.182-0.097-0.25-0.166
		c-0.07-0.069-0.125-0.153-0.163-0.25s-0.058-0.202-0.058-0.313c0-0.108,0.019-0.208,0.058-0.304
		c0.038-0.094,0.093-0.178,0.163-0.248c0.069-0.069,0.154-0.124,0.251-0.163c0.097-0.038,0.204-0.057,0.318-0.057
		c0.116,0,0.223,0.021,0.319,0.061c0.097,0.04,0.181,0.095,0.25,0.163c0.07,0.067,0.125,0.149,0.163,0.244
		c0.039,0.095,0.058,0.194,0.058,0.304c0,0.108-0.02,0.212-0.058,0.308c-0.038,0.097-0.093,0.182-0.163,0.253
		c-0.069,0.071-0.154,0.128-0.25,0.169C9.015,18.813,8.908,18.833,8.793,18.833z M8.793,17.333c-0.106,0-0.206,0.019-0.295,0.053
		c-0.089,0.036-0.167,0.086-0.23,0.149c-0.065,0.065-0.114,0.141-0.149,0.229s-0.053,0.18-0.053,0.28
		c0,0.104,0.018,0.201,0.053,0.29s0.085,0.167,0.149,0.23c0.063,0.063,0.142,0.114,0.231,0.152c0.089,0.037,0.188,0.056,0.295,0.056
		s0.206-0.019,0.295-0.056c0.089-0.037,0.167-0.09,0.23-0.155c0.064-0.065,0.115-0.144,0.15-0.233
		c0.035-0.088,0.053-0.184,0.053-0.284c0-0.102-0.017-0.193-0.053-0.28c-0.035-0.087-0.085-0.162-0.149-0.224
		c-0.063-0.063-0.141-0.113-0.23-0.15C9,17.353,8.9,17.333,8.793,17.333z M5.561,17.194H4.994c-0.017,0-0.031-0.014-0.031-0.03
		v-1.437c0-0.017,0.014-0.03,0.031-0.03h0.573c0.154,0,0.283,0.026,0.385,0.078c0.099,0.051,0.18,0.116,0.239,0.194
		c0.058,0.075,0.098,0.157,0.121,0.245c0.021,0.086,0.033,0.163,0.033,0.23c0,0.073-0.012,0.153-0.036,0.238
		c-0.024,0.087-0.067,0.168-0.127,0.241C6.121,17,6.042,17.062,5.94,17.116C5.838,17.168,5.711,17.194,5.561,17.194z M5.024,17.134
		h0.537c0.14,0,0.258-0.024,0.351-0.072c0.094-0.05,0.167-0.107,0.222-0.176c0.055-0.066,0.094-0.141,0.116-0.219
		c0.022-0.079,0.034-0.153,0.034-0.222c0-0.062-0.01-0.135-0.031-0.215s-0.058-0.155-0.11-0.224c-0.054-0.07-0.127-0.13-0.219-0.177
		c-0.092-0.048-0.212-0.072-0.356-0.072H5.024V17.134z M17.094,16.494h-0.412c-0.012,0-0.021-0.006-0.027-0.016
		c-0.005-0.011-0.004-0.022,0.002-0.032c0.089-0.128,0.177-0.258,0.264-0.388c0.087-0.132,0.175-0.263,0.264-0.396
		c0.006-0.008,0.016-0.013,0.025-0.013h0.597c0.012,0,0.023,0.007,0.028,0.018s0.003,0.024-0.005,0.033
		c-0.117,0.132-0.234,0.263-0.354,0.395l-0.014,0.015c-0.115,0.126-0.23,0.251-0.345,0.374
		C17.11,16.491,17.103,16.494,17.094,16.494z M16.74,16.434h0.34c0.112-0.12,0.224-0.242,0.336-0.364l0.014-0.015
		c0.104-0.115,0.207-0.229,0.308-0.344h-0.512c-0.086,0.128-0.171,0.254-0.255,0.381C16.895,16.207,16.817,16.32,16.74,16.434z"/>
</g>
<g>
	<g id="simbolo">
		<path fill="#FFFF00" d="M5.562,6.923C6.025,6.67,6.533,6.444,7.078,6.296c0.271-0.08,0.548-0.151,0.827-0.22
			c0.281-0.063,0.566-0.112,0.852-0.167c1.14-0.219,2.288-0.341,3.311-0.661c1.231-0.382,2.562-0.609,3.899-0.647l0.5-0.019
			c0.168-0.002,0.334,0.003,0.502,0.005c0.334,0.006,0.668,0.016,0.998,0.029c0.33,0.028,0.66,0.055,0.986,0.083
			c0.164,0.015,0.326,0.03,0.488,0.046c0.16,0.021,0.32,0.043,0.48,0.065c-0.035,0.257-0.291,0.615-0.1,0.772
			c0.777,0.5,0.686,1.011,0.607,1.524c-0.039,0.256-0.594-0.082-0.434,0.202c-0.295-0.039-0.691-0.065-0.945-0.028
			c-0.254,0.042-0.359,0.129-0.08,0.285c0.164,0.274,0.971,0.13,1.105,0.54c0.131,0.411-0.303,0.744-0.174,1.154
			c0.186,0.019,0.551,0.089,0.732,0.123c0.135,0.289-0.314,0.734-0.137,0.767c0.242,0.18,0.547,0.257,0.873,0.333
			c0.328,0.076,0.684,0.125,1.033,0.205c-0.031,0.126-0.018,0.264-0.045,0.374c-0.014,0.055-0.039,0.103-0.086,0.139
			c-0.043,0.038-0.107,0.065-0.199,0.077c-3.004-0.616-6.148-0.631-9.188-0.196c-3.047,0.433-5.989,1.297-8.782,2.433
			c-0.681,0.176-0.452-0.503-0.127-1.086c-0.106,0.193-0.274-0.158-0.381,0.036c-0.084-0.175-0.116-0.447-0.045-0.731
			c0.035-0.143,0.096-0.287,0.187-0.425c0.092-0.136,0.212-0.269,0.375-0.368c-0.176,0.068-0.343,0.153-0.514,0.232
			c-0.225-0.038-0.163-0.354-0.271-0.589c0.174-0.082,0.348-0.164,0.295-0.283c-0.052-0.118-0.157-0.355-0.21-0.474
			c-0.178,0.084-0.535,0.251-0.712,0.335c0.178-0.084,0.355-0.167,0.302-0.285C2.949,9.757,2.84,9.521,2.786,9.403
			c0.308-0.3,0.974-0.28,1.293-0.558L3.934,8.485C3.509,8.525,2.987,8.867,2.624,9.05c0.131-0.205,0.079-0.324-0.028-0.56
			c0.126-0.098,0.27-0.159,0.418-0.207c0.149-0.048,0.302-0.086,0.451-0.13c0.301-0.086,0.581-0.216,0.806-0.499
			c-0.196,0.068-0.388,0.149-0.58,0.229c0.036-0.19,0.135-0.33,0.275-0.433c0.141-0.099,0.32-0.165,0.511-0.216
			C4.86,7.133,5.281,7.072,5.562,6.923"/>
		<path d="M13.67,12.541l-1.101,0.174c-0.076,0.012-0.126,0.086-0.115,0.16l0.03,0.191c0.012,0.076,0.081,0.128,0.159,0.116
			l1.102-0.175c0.074-0.012,0.127-0.087,0.115-0.159l-0.031-0.192C13.816,12.581,13.748,12.528,13.67,12.541"/>
		<path d="M11.368,8.665c-0.02,0.24-0.208,0.448-0.439,0.484L8.629,9.513C8.403,9.549,8.155,9.411,8.064,9.194l-1.328-3.16
			C6.729,6.017,6.688,5.995,6.665,5.999L5.751,6.144L5.677,5.677l0.914-0.145c0.232-0.037,0.479,0.1,0.571,0.318L8.49,9.01
			c0.007,0.017,0.048,0.039,0.064,0.037l2.3-0.364c0.02-0.003,0.049-0.035,0.051-0.061l0.201-2.37l0.472-0.074L11.368,8.665z"/>
		<path d="M8.707,9.979c0.253-0.041,0.491,0.136,0.532,0.394c0.041,0.258-0.131,0.499-0.384,0.539s-0.492-0.136-0.532-0.394
			C8.282,10.261,8.454,10.02,8.707,9.979"/>
		<path d="M10.998,9.616c0.253-0.04,0.491,0.136,0.532,0.394c0.041,0.258-0.131,0.499-0.384,0.539s-0.491-0.137-0.532-0.394
			S10.745,9.656,10.998,9.616"/>
		<rect x="8.811" y="4.228" transform="matrix(-0.9877 0.1564 -0.1564 -0.9877 24.205 7.0235)" width="6.031" height="0.472"/>
		<path d="M9.845,11.233l0.369,2.332c0.081,0.513,0.559,0.868,1.065,0.788l4.123-0.653c0.508-0.08,0.852-0.562,0.77-1.078
			l-1.479-9.329c-0.08-0.513-0.559-0.868-1.064-0.788L9.507,3.158c-0.509,0.081-0.852,0.563-0.77,1.079l0.295,1.866L9.491,6.03
			L9.195,4.164c-0.042-0.258,0.13-0.499,0.385-0.539l4.123-0.653c0.252-0.04,0.492,0.138,0.533,0.394l1.477,9.329
			c0.041,0.259-0.131,0.499-0.385,0.54l-4.122,0.652c-0.252,0.04-0.493-0.138-0.533-0.394l-0.37-2.332L9.845,11.233z"/>
		<rect x="9.993" y="11.692" transform="matrix(-0.9877 0.1564 -0.1564 -0.9877 27.7218 21.6744)" width="6.031" height="0.472"/>
		<rect x="7.285" y="6.529" transform="matrix(-0.9877 0.1565 -0.1565 -0.9877 19.6877 11.981)" width="4.175" height="0.472"/>
	</g>
	<g>
		<path fill="#231F20" d="M16.025,22.352c0.043,0.056,0.201,0.178,0.445,0.178c0.393,0,0.576-0.251,0.576-0.517
			c0-0.271-0.225-0.418-0.34-0.487c-0.139-0.083-0.189-0.127-0.189-0.208c0-0.069,0.068-0.117,0.146-0.117
			c0.123,0,0.242,0.09,0.26,0.104c0.016,0.014,0.055,0.012,0.072-0.012l0.146-0.178c0.018-0.021,0.008-0.06-0.014-0.078
			c-0.062-0.051-0.219-0.168-0.439-0.168c-0.373,0-0.547,0.237-0.547,0.486c0,0.24,0.199,0.386,0.344,0.482
			c0.1,0.065,0.15,0.128,0.152,0.21c0.002,0.076-0.062,0.142-0.146,0.142c-0.125,0-0.238-0.079-0.268-0.102
			c-0.018-0.012-0.055-0.017-0.074,0.014l-0.125,0.187C16.012,22.308,16.008,22.329,16.025,22.352 M14.768,22.352
			c0.043,0.056,0.201,0.178,0.445,0.178c0.393,0,0.576-0.251,0.576-0.517c0-0.271-0.225-0.418-0.342-0.487
			c-0.139-0.083-0.189-0.127-0.189-0.208c0-0.069,0.07-0.117,0.148-0.117c0.123,0,0.242,0.09,0.258,0.104
			c0.018,0.014,0.057,0.012,0.074-0.012l0.146-0.178c0.018-0.021,0.01-0.06-0.014-0.078c-0.062-0.051-0.221-0.168-0.439-0.168
			c-0.373,0-0.547,0.237-0.547,0.486c0,0.24,0.199,0.386,0.344,0.482c0.1,0.065,0.15,0.128,0.152,0.21
			c0.002,0.076-0.062,0.142-0.148,0.142c-0.123,0-0.236-0.079-0.268-0.102c-0.016-0.012-0.053-0.017-0.072,0.014l-0.125,0.187
			C14.754,22.308,14.748,22.329,14.768,22.352 M13.498,22.463c-0.006,0.022,0.01,0.044,0.031,0.044H14.4
			c0.023,0,0.043-0.021,0.047-0.044l0.033-0.252c0.002-0.022-0.008-0.044-0.031-0.044h-0.551l0.045-0.312h0.445
			c0.021,0,0.041-0.019,0.047-0.044l0.037-0.251c0.002-0.023-0.014-0.044-0.035-0.044H13.99l0.041-0.287h0.549
			c0.023,0,0.041-0.021,0.045-0.043l0.035-0.252c0.004-0.023-0.012-0.044-0.033-0.044h-0.871c-0.021,0-0.041,0.021-0.043,0.044
			L13.498,22.463z M12.479,21.583l0.051-0.362h0.265c0.083,0,0.125,0.067,0.125,0.148c0,0.112-0.079,0.214-0.188,0.214H12.479z
			 M11.994,22.463c-0.005,0.022,0.009,0.044,0.033,0.044h0.286c0.021,0,0.042-0.021,0.044-0.044l0.083-0.587h0.102l0.189,0.609
			c0.002,0.012,0.016,0.021,0.033,0.021h0.296c0.035,0,0.057-0.037,0.045-0.067l-0.2-0.584c0.235-0.074,0.376-0.281,0.376-0.53
			c0-0.238-0.162-0.435-0.404-0.435h-0.624c-0.021,0-0.041,0.021-0.043,0.044L11.994,22.463z M11.154,21.583l0.048-0.354h0.168
			c0.062,0,0.108,0.062,0.108,0.144c0,0.118-0.079,0.21-0.159,0.21H11.154z M10.669,22.463c-0.002,0.022,0.009,0.044,0.032,0.044
			h0.281c0.021,0,0.044-0.021,0.046-0.044l0.076-0.543h0.189c0.3,0,0.542-0.266,0.542-0.572c0-0.244-0.168-0.457-0.399-0.457H10.93
			c-0.023,0-0.044,0.021-0.046,0.044L10.669,22.463z M9.067,22.507h0.344c0.011,0,0.03-0.007,0.039-0.021l0.314-0.478h0.004
			l0.188,0.478c0.002,0.007,0.014,0.021,0.032,0.021h0.321c0.032,0,0.058-0.032,0.041-0.065l-0.332-0.752l0.526-0.734
			c0.025-0.029,0.009-0.064-0.025-0.064h-0.358c-0.012,0-0.028,0.005-0.037,0.021L9.84,21.353H9.837l-0.161-0.441
			c-0.005-0.011-0.019-0.021-0.03-0.021H9.314c-0.038,0-0.058,0.035-0.046,0.064l0.32,0.711l-0.544,0.775
			C9.018,22.472,9.035,22.507,9.067,22.507 M7.848,22.463c-0.004,0.022,0.009,0.044,0.032,0.044H8.75
			c0.023,0,0.043-0.021,0.046-0.044l0.035-0.252c0.002-0.022-0.009-0.044-0.032-0.044H8.25l0.043-0.312h0.446
			c0.021,0,0.042-0.019,0.046-0.044l0.037-0.251c0.002-0.023-0.014-0.044-0.034-0.044H8.339l0.042-0.287H8.93
			c0.023,0,0.042-0.021,0.044-0.043l0.037-0.252C9.014,20.911,9,20.891,8.977,20.891h-0.87c-0.021,0-0.042,0.021-0.044,0.044
			L7.848,22.463z"/>
		<g>
			<defs>
				<rect id="SVGID_1_" x="4.175" y="15.017" width="16.649" height="4.347"/>
			</defs>
			<clipPath id="SVGID_2_">
				<use xlink:href="#SVGID_1_"  overflow="visible"/>
			</clipPath>
			<path clip-path="url(#SVGID_2_)" d="M5.842,15.815c0.091,0.047,0.165,0.106,0.219,0.177c0.053,0.068,0.09,0.144,0.11,0.224
				c0.021,0.08,0.031,0.153,0.031,0.215c0,0.069-0.011,0.143-0.034,0.222c-0.021,0.078-0.06,0.152-0.115,0.219
				c-0.056,0.068-0.128,0.125-0.222,0.176c-0.093,0.048-0.211,0.072-0.351,0.072H4.943v-1.376h0.543
				C5.63,15.743,5.75,15.768,5.842,15.815 M6.583,18.005c-0.075-0.121-0.153-0.244-0.233-0.371c0.104-0.063,0.195-0.139,0.271-0.224
				c0.082-0.093,0.15-0.196,0.202-0.306c0.05-0.109,0.088-0.225,0.112-0.343s0.035-0.237,0.035-0.354
				c0-0.214-0.038-0.412-0.112-0.587c-0.076-0.173-0.182-0.32-0.318-0.439c-0.137-0.118-0.305-0.209-0.498-0.271
				c-0.194-0.062-0.411-0.094-0.643-0.094H4.205c-0.017,0-0.03,0.014-0.03,0.03v4.223c0,0.017,0.013,0.03,0.03,0.03h0.707
				c0.017,0,0.031-0.014,0.031-0.03v-1.424h0.601c0.137,0.207,0.283,0.434,0.437,0.673l0.115,0.18
				c0.12,0.188,0.246,0.385,0.378,0.588C6.48,19.295,6.49,19.3,6.5,19.3h0.85c0.012,0,0.022-0.006,0.027-0.016
				c0.006-0.01,0.005-0.021-0.001-0.031c-0.104-0.162-0.2-0.313-0.289-0.452c-0.077-0.12-0.152-0.237-0.224-0.353L6.583,18.005z
				 M9.387,18.313c-0.035,0.09-0.086,0.168-0.15,0.233c-0.063,0.065-0.141,0.119-0.23,0.155c-0.089,0.037-0.189,0.056-0.295,0.056
				c-0.107,0-0.206-0.019-0.295-0.056c-0.089-0.037-0.168-0.089-0.231-0.152c-0.064-0.063-0.114-0.142-0.15-0.23
				c-0.035-0.089-0.052-0.187-0.052-0.29c0-0.101,0.017-0.192,0.052-0.279c0.036-0.089,0.085-0.164,0.15-0.229
				c0.063-0.062,0.141-0.113,0.23-0.149c0.09-0.034,0.189-0.053,0.296-0.053c0.107,0,0.206,0.02,0.295,0.057
				c0.09,0.037,0.167,0.087,0.231,0.15c0.064,0.062,0.114,0.137,0.149,0.225c0.036,0.086,0.053,0.178,0.053,0.279
				C9.44,18.13,9.422,18.226,9.387,18.313 M10.033,19.3c0.017,0,0.03-0.014,0.03-0.03v-2.462c0-0.017-0.013-0.03-0.03-0.03h-0.54
				c-0.016,0-0.029,0.013-0.03,0.028l-0.017,0.212c-0.008-0.01-0.018-0.021-0.028-0.031c-0.04-0.042-0.094-0.083-0.167-0.124
				c-0.069-0.04-0.152-0.075-0.246-0.104c-0.093-0.029-0.201-0.044-0.322-0.044c-0.178,0-0.349,0.036-0.508,0.108
				c-0.162,0.075-0.3,0.171-0.421,0.294c-0.119,0.122-0.216,0.267-0.287,0.43c-0.07,0.163-0.106,0.338-0.106,0.519
				c0,0.174,0.033,0.34,0.098,0.495c0.065,0.156,0.157,0.295,0.276,0.412c0.118,0.119,0.26,0.215,0.42,0.285
				c0.163,0.071,0.342,0.106,0.534,0.106c0.121,0,0.23-0.013,0.324-0.039c0.096-0.026,0.175-0.057,0.24-0.092
				c0.066-0.034,0.121-0.072,0.164-0.111c0.008-0.008,0.015-0.016,0.023-0.023v0.01v0.162c0,0.017,0.013,0.03,0.03,0.03H10.033z
				 M14.795,19.3c0.016,0,0.029-0.014,0.029-0.03v-1.786c-0.008-0.229-0.092-0.415-0.248-0.557
				c-0.154-0.142-0.367-0.213-0.629-0.213c-0.129,0-0.238,0.017-0.336,0.05c-0.096,0.035-0.18,0.082-0.254,0.142
				c-0.074,0.062-0.141,0.135-0.199,0.215c-0.043,0.061-0.082,0.124-0.117,0.189c-0.041-0.163-0.125-0.3-0.253-0.407
				c-0.149-0.125-0.352-0.188-0.602-0.188c-0.253,0.004-0.455,0.071-0.602,0.201c-0.118,0.104-0.222,0.241-0.307,0.407
				c-0.001-0.013-0.002-0.025-0.003-0.037c-0.004-0.033-0.006-0.065-0.009-0.1l-0.003-0.042c-0.004-0.048-0.008-0.099-0.012-0.152
				l-0.011-0.186c-0.001-0.016-0.015-0.028-0.031-0.028h-0.492c-0.017,0-0.031,0.014-0.031,0.03v2.462
				c0,0.017,0.014,0.03,0.031,0.03h0.556c0.017,0,0.031-0.014,0.031-0.03v-1.187c0-0.223,0.059-0.401,0.181-0.547
				c0.12-0.143,0.286-0.212,0.505-0.212c0.156,0.009,0.271,0.052,0.34,0.132c0.071,0.081,0.11,0.18,0.117,0.29v1.523
				c0,0.017,0.014,0.03,0.031,0.03h0.556c0.018,0,0.029-0.014,0.029-0.03v-1.183c0-0.223,0.062-0.407,0.182-0.551
				c0.119-0.141,0.289-0.212,0.506-0.212c0.158,0.009,0.273,0.052,0.344,0.132c0.066,0.08,0.105,0.179,0.113,0.29v1.523
				c0,0.017,0.014,0.03,0.029,0.03H14.795z M17.748,15.687c0.008-0.009,0.01-0.021,0.004-0.033
				c-0.004-0.011-0.016-0.018-0.027-0.018h-0.598c-0.01,0-0.02,0.005-0.025,0.013c-0.09,0.133-0.176,0.264-0.264,0.396
				c-0.086,0.13-0.174,0.26-0.264,0.388c-0.006,0.01-0.006,0.021-0.002,0.032c0.006,0.01,0.016,0.016,0.027,0.016h0.412
				c0.008,0,0.018-0.003,0.023-0.01c0.113-0.123,0.229-0.248,0.344-0.374l0.014-0.015C17.514,15.949,17.631,15.818,17.748,15.687
				 M16.32,18.702c-0.088-0.037-0.166-0.089-0.229-0.152c-0.064-0.063-0.117-0.141-0.154-0.228
				c-0.035-0.088-0.055-0.182-0.055-0.281s0.02-0.191,0.055-0.28c0.039-0.088,0.09-0.162,0.154-0.229
				c0.064-0.063,0.141-0.115,0.229-0.154c0.086-0.039,0.18-0.06,0.279-0.06s0.195,0.021,0.281,0.06
				c0.086,0.038,0.164,0.09,0.229,0.154c0.064,0.066,0.115,0.141,0.154,0.229c0.041,0.086,0.059,0.178,0.059,0.279
				c0,0.101-0.018,0.195-0.059,0.28c-0.039,0.088-0.092,0.164-0.154,0.229c-0.064,0.063-0.141,0.116-0.229,0.152
				C16.705,18.776,16.494,18.776,16.32,18.702 M17.842,18.551c0.066-0.162,0.098-0.336,0.098-0.516s-0.033-0.352-0.1-0.513
				c-0.068-0.16-0.16-0.301-0.277-0.418c-0.115-0.118-0.256-0.213-0.418-0.282s-0.34-0.104-0.527-0.104
				c-0.186,0-0.359,0.034-0.523,0.104c-0.166,0.07-0.309,0.165-0.43,0.281c-0.123,0.119-0.221,0.26-0.289,0.419
				c-0.07,0.161-0.102,0.329-0.102,0.513c0,0.198,0.033,0.381,0.105,0.542c0.07,0.162,0.166,0.304,0.287,0.423
				c0.123,0.116,0.266,0.208,0.426,0.269c0.16,0.063,0.336,0.095,0.52,0.095c0.191,0,0.371-0.034,0.533-0.104
				c0.162-0.068,0.303-0.164,0.422-0.285C17.684,18.855,17.777,18.713,17.842,18.551 M20.824,19.27v-1.786
				c-0.008-0.228-0.09-0.415-0.244-0.557s-0.363-0.213-0.621-0.213c-0.25,0-0.461,0.065-0.625,0.196
				c-0.139,0.108-0.252,0.246-0.338,0.411c-0.004-0.063-0.01-0.123-0.018-0.179c-0.01-0.09-0.018-0.204-0.025-0.337
				c0-0.015-0.014-0.028-0.029-0.028h-0.488c-0.016,0-0.029,0.014-0.029,0.03v2.462c0,0.017,0.014,0.03,0.029,0.03h0.557
				c0.016,0,0.029-0.014,0.029-0.03v-1.187c0-0.109,0.02-0.212,0.055-0.304s0.084-0.172,0.15-0.238
				c0.062-0.065,0.141-0.119,0.232-0.158s0.191-0.059,0.297-0.059c0.152,0.009,0.266,0.052,0.336,0.132
				c0.074,0.081,0.113,0.18,0.121,0.29v1.523c0,0.017,0.014,0.03,0.031,0.03h0.549C20.811,19.3,20.824,19.286,20.824,19.27"/>
		</g>
	</g>
</g>
</svg>
