<?xml version="1.0" encoding="utf-8"?>
<!-- Generator: Adobe Illustrator 16.0.0, SVG Export Plug-In . SVG Version: 6.00 Build 0)  -->
<!DOCTYPE svg PUBLIC "-//W3C//DTD SVG 1.1//EN" "http://www.w3.org/Graphics/SVG/1.1/DTD/svg11.dtd">
<svg version="1.1" id="Layer_1" xmlns="http://www.w3.org/2000/svg" xmlns:xlink="http://www.w3.org/1999/xlink" x="0px" y="0px"
	 width="68px" height="27px" viewBox="0 0 68 27" enable-background="new 0 0 68 27" xml:space="preserve">
<g>
	<g>
		<g>
			<path d="M18.769,18.959c0.097,0.213,0.307,0.296,0.466,0.296c0.127,0,0.318-0.04,0.318-0.204c0-0.359-1.048-0.13-1.048-0.807
				c0-0.377,0.348-0.552,0.682-0.552c0.31,0,0.604,0.129,0.725,0.391l-0.331,0.156c-0.043-0.127-0.181-0.218-0.386-0.218
				c-0.148,0-0.274,0.056-0.274,0.193c0,0.326,1.062,0.092,1.062,0.79c0,0.431-0.369,0.587-0.744,0.587
				c-0.307,0-0.658-0.1-0.827-0.455L18.769,18.959z"/>
			<path d="M22.452,17.719v1.121c0,0.491-0.28,0.738-0.757,0.738c-0.477,0-0.757-0.247-0.757-0.738v-1.121h0.407v1.06
				c0,0.256,0.075,0.396,0.35,0.396c0.278,0,0.353-0.14,0.353-0.396v-1.06H22.452z"/>
			<path d="M23.942,19.552h-0.404v-1.833h0.687c0.297,0,0.561,0.245,0.561,0.593c0,0.372-0.264,0.585-0.561,0.585h-0.283V19.552z
				 M23.942,18.059v0.521h0.215c0.122,0,0.243-0.095,0.243-0.268c0-0.167-0.121-0.253-0.243-0.253H23.942z"/>
			<polygon points="26.85,19.552 25.788,19.552 25.788,17.719 26.85,17.719 26.85,18.083 26.192,18.083 26.192,18.449 
				26.826,18.449 26.826,18.816 26.192,18.816 26.192,19.186 26.85,19.186 			"/>
			<path d="M28.356,19.552h-0.404v-1.833h0.687c0.296,0,0.561,0.245,0.561,0.593c0,0.311-0.188,0.51-0.42,0.566l0.528,0.674h-0.485
				l-0.463-0.655h-0.003V19.552z M28.356,18.059v0.536h0.215c0.121,0,0.248-0.103,0.248-0.274c0-0.167-0.127-0.262-0.248-0.262
				H28.356z"/>
			<polygon points="32.77,19.552 31.708,19.552 31.708,17.719 32.77,17.719 32.77,18.083 32.112,18.083 32.112,18.449 
				32.745,18.449 32.745,18.816 32.112,18.816 32.112,19.186 32.77,19.186 			"/>
			<polygon points="35,19.552 34.612,18.935 34.219,19.552 33.723,19.552 34.362,18.636 33.723,17.719 34.219,17.719 34.612,18.336 
				35,17.719 35.493,17.719 34.857,18.636 35.493,19.552 			"/>
			<path d="M36.879,19.552h-0.404v-1.833h0.687c0.297,0,0.561,0.245,0.561,0.593c0,0.372-0.264,0.585-0.561,0.585h-0.282V19.552z
				 M36.879,18.059v0.521h0.215c0.121,0,0.243-0.095,0.243-0.268c0-0.167-0.122-0.253-0.243-0.253H36.879z"/>
			<path d="M39.128,19.552h-0.404v-1.833h0.688c0.297,0,0.561,0.245,0.561,0.593c0,0.311-0.188,0.51-0.421,0.566l0.528,0.674h-0.484
				l-0.464-0.655h-0.003V19.552z M39.128,18.059v0.536h0.216c0.121,0,0.248-0.103,0.248-0.274c0-0.167-0.127-0.262-0.248-0.262
				H39.128z"/>
			<polygon points="42.065,19.552 41.004,19.552 41.004,17.719 42.065,17.719 42.065,18.083 41.408,18.083 41.408,18.449 
				42.041,18.449 42.041,18.816 41.408,18.816 41.408,19.186 42.065,19.186 			"/>
			<path d="M43.407,18.959c0.097,0.213,0.307,0.296,0.466,0.296c0.127,0,0.318-0.04,0.318-0.204c0-0.359-1.049-0.13-1.049-0.807
				c0-0.377,0.348-0.552,0.682-0.552c0.311,0,0.604,0.129,0.726,0.391l-0.332,0.156c-0.043-0.127-0.181-0.218-0.385-0.218
				c-0.148,0-0.275,0.056-0.275,0.193c0,0.326,1.062,0.092,1.062,0.79c0,0.431-0.369,0.587-0.743,0.587
				c-0.308,0-0.657-0.1-0.827-0.455L43.407,18.959z"/>
			<path d="M45.856,18.959c0.097,0.213,0.307,0.296,0.466,0.296c0.127,0,0.318-0.04,0.318-0.204c0-0.359-1.049-0.13-1.049-0.807
				c0-0.377,0.348-0.552,0.682-0.552c0.311,0,0.604,0.129,0.726,0.391l-0.332,0.156c-0.043-0.127-0.181-0.218-0.385-0.218
				c-0.148,0-0.275,0.056-0.275,0.193c0,0.326,1.062,0.092,1.062,0.79c0,0.431-0.369,0.587-0.743,0.587
				c-0.308,0-0.657-0.1-0.827-0.455L45.856,18.959z"/>
			<path d="M38.768,6.854l-0.247,0.425c-0.103,0.178-0.33,0.238-0.508,0.135l-1.865-1.083c-0.176-0.102-0.235-0.327-0.134-0.502
				l0.247-0.425C36.495,5,37.013,4.863,37.416,5.097l1.046,0.607C38.864,5.938,39.001,6.452,38.768,6.854"/>
			<path d="M7.973,10.268C9.142,9.595,9.875,8.38,9.875,7.063c0-2.133-1.725-3.935-3.767-3.935H2.204L1.747,3.141
				c-0.394,0-0.396,0.849-0.396,1.408v9.663c0,0.745,0.583,1.329,1.328,1.329s1.329-0.584,1.329-1.329v-3.396h1.247l2.112,4.007
				c0.215,0.452,0.667,0.732,1.18,0.732c0.23,0,0.437-0.052,0.629-0.158c0.646-0.338,0.897-1.141,0.558-1.797L7.973,10.268z
				 M4.008,5.801h2.101c0.571,0,1.11,0.613,1.11,1.262c0,0.573-0.587,1.095-1.232,1.095H4.008V5.801z"/>
			<path d="M17.357,7.076c-0.479,0-0.877,0.257-1.084,0.653c-0.646-0.393-1.335-0.592-2.056-0.592c-2.27,0-4.118,1.848-4.118,4.118
				c0,2.262,1.848,4.102,4.118,4.102c0.724,0,1.401-0.191,2.022-0.57c0.195,0.436,0.611,0.724,1.118,0.724
				c0.725,0,1.313-0.583,1.313-1.299V8.374C18.671,7.658,18.082,7.076,17.357,7.076 M14.218,12.715c-0.822,0-1.491-0.655-1.491-1.46
				c0-0.813,0.669-1.476,1.491-1.476c0.814,0,1.476,0.662,1.476,1.476C15.694,12.06,15.032,12.715,14.218,12.715"/>
			<path d="M26.976,7.106c-0.785,0-1.521,0.243-2.109,0.692c-0.964-0.713-2.27-0.889-3.397-0.442
				c-0.223-0.176-0.511-0.28-0.803-0.28c-0.729,0-1.344,0.623-1.344,1.359v5.822c0,0.721,0.616,1.329,1.344,1.329
				c0.741,0,1.344-0.597,1.344-1.329v-3.841c0-0.349,0.333-0.622,0.759-0.622c0.426,0,0.76,0.273,0.76,0.622v3.795
				c0,0.754,0.59,1.344,1.343,1.344c0.732,0,1.329-0.603,1.329-1.344v-3.795c0-0.349,0.34-0.622,0.775-0.622
				c0.402,0,0.729,0.279,0.729,0.622v3.795c0,0.741,0.609,1.344,1.359,1.344c0.745,0,1.328-0.59,1.328-1.344v-3.795
				C30.392,8.591,28.86,7.106,26.976,7.106"/>
			<path d="M43.621,7.091c-0.599,0-1.169,0.133-1.701,0.396c-0.248-0.294-0.614-0.472-1.012-0.472c-0.741,0-1.344,0.603-1.344,1.343
				v5.822c0,0.741,0.603,1.344,1.344,1.344s1.344-0.603,1.344-1.344V11.59c0-0.7,0.372-1.811,1.369-1.811
				c0.73,0,1.324,0.682,1.324,1.521v2.88c0,0.754,0.59,1.344,1.344,1.344c0.732,0,1.328-0.603,1.328-1.344V11.3
				C47.617,8.979,45.824,7.091,43.621,7.091"/>
			<path d="M35.009,7.015c-2.346,0-4.254,1.908-4.254,4.254s1.908,4.255,4.254,4.255c2.337,0,4.253-1.901,4.27-4.243
				C39.263,8.929,37.347,7.015,35.009,7.015"/>
			<path fill="#FFFFFF" d="M37.163,11.792L37.163,11.792L37.163,11.792z"/>
			<path fill="#FFFFFF" d="M37.163,11.733c-0.004-0.272-0.2-0.435-0.441-0.435h-1.275v-1.286c0-0.242-0.217-0.438-0.435-0.442
				c-0.272,0.004-0.435,0.2-0.435,0.442v1.286v0.43v0.007v0.013c0,0.231,0.188,0.419,0.419,0.419h0.006h0.444h1.275
				C36.963,12.167,37.159,11.95,37.163,11.733"/>
			<path d="M56.273,20.691c-0.835-0.192-1.671,0.33-1.863,1.165s0.33,1.671,1.165,1.863c0.835,0.193,1.671-0.329,1.863-1.164
				S57.109,20.885,56.273,20.691 M55.75,22.963c-0.418-0.097-0.679-0.515-0.583-0.932c0.097-0.418,0.515-0.679,0.932-0.582
				c0.418,0.096,0.679,0.514,0.583,0.932C56.585,22.798,56.167,23.06,55.75,22.963"/>
			<path d="M58.604,3.688l1.514,0.349c0.21,0.048,0.418-0.082,0.466-0.291c0.049-0.209-0.082-0.417-0.291-0.466l-1.514-0.35
				c-0.21-0.048-0.418,0.082-0.466,0.291C58.265,3.431,58.395,3.639,58.604,3.688"/>
			<path d="M61.254,4.299l0.379,0.087c0.209,0.048,0.417-0.082,0.466-0.291c0.048-0.209-0.082-0.417-0.291-0.466l-0.379-0.087
				c-0.209-0.048-0.418,0.082-0.466,0.291C60.914,4.042,61.045,4.25,61.254,4.299"/>
			<path d="M61.166,7.718c-0.232-0.266-0.564-0.412-0.935-0.412h-8.937l-0.09-0.675c-0.098-0.726-0.604-1.295-1.151-1.295h-0.657
				c-0.203,0-0.368,0.165-0.368,0.368s0.165,0.368,0.368,0.368h0.657c0.117,0,0.367,0.25,0.422,0.657l1.053,7.897
				c0.047,0.349,0.226,0.674,0.504,0.918c0.206,0.181,0.45,0.301,0.706,0.352c-0.104,0.191-0.163,0.41-0.163,0.644
				c0,0.746,0.606,1.353,1.353,1.353s1.353-0.606,1.353-1.353c0-0.223-0.054-0.432-0.149-0.617h1.928
				c-0.096,0.186-0.149,0.395-0.149,0.617c0,0.746,0.606,1.353,1.353,1.353s1.353-0.606,1.353-1.353
				c0-0.223-0.054-0.432-0.149-0.617h0.964c0.203,0,0.368-0.165,0.368-0.368s-0.165-0.368-0.368-0.368h-7.42
				c-0.359,0-0.704-0.301-0.751-0.656l-0.077-0.578h2.863l0,0l0,0h2.363h0.001l0,0h2.035c0.352,0,0.698-0.134,0.977-0.378
				s0.457-0.569,0.504-0.917l0.527-3.958C61.5,8.333,61.398,7.984,61.166,7.718 M58.262,15.922c0.34,0,0.617,0.276,0.617,0.617
				c0,0.34-0.277,0.617-0.617,0.617s-0.617-0.277-0.617-0.617C57.645,16.198,57.922,15.922,58.262,15.922 M53.928,15.922
				c0.34,0,0.617,0.276,0.617,0.617c0,0.34-0.277,0.617-0.617,0.617c-0.341,0-0.617-0.277-0.617-0.617
				C53.311,16.198,53.587,15.922,53.928,15.922 M51.393,8.042h2.914l0.147,2.22h-2.766L51.393,8.042z M52.082,13.216l-0.295-2.219
				h2.716l0.148,2.219H52.082z M57.063,13.216h-1.675l-0.148-2.219h1.971L57.063,13.216z M57.261,10.261h-2.069l-0.148-2.22h2.365
				L57.261,10.261z M60.194,12.559c-0.048,0.356-0.392,0.657-0.751,0.657h-1.643l0.147-2.219h2.454L60.194,12.559z M60.722,8.602
				l-0.221,1.66h-2.503l0.147-2.22h2.086c0.154,0,0.29,0.058,0.381,0.162S60.742,8.448,60.722,8.602"/>
			<path d="M65.323,3.245l-9.535-2.201c-0.92-0.212-1.841,0.363-2.053,1.282L53.04,5.339l0.763,0.151l0.376-1.628l11.355,2.621
				l-3.32,14.383l-11.355-2.621l0.398-1.728l-0.763-0.15l-1.231,5.335c-0.212,0.92,0.363,1.841,1.282,2.053l9.535,2.201
				c0.919,0.212,1.841-0.363,2.053-1.282l4.473-19.377C66.817,4.378,66.242,3.457,65.323,3.245 M61.376,24.499
				c-0.116,0.502-0.619,0.815-1.121,0.7l-9.535-2.201c-0.501-0.116-0.815-0.619-0.7-1.121l0.664-2.874l11.355,2.621L61.376,24.499z
				 M65.848,5.122l-0.139,0.604L54.354,3.104l0.139-0.604c0.116-0.502,0.619-0.816,1.121-0.7l9.534,2.201
				C65.649,4.118,65.964,4.62,65.848,5.122"/>
		</g>
	</g>
	<polygon points="13.833,19.552 12.771,19.552 12.771,17.719 13.833,17.719 13.833,18.083 13.175,18.083 13.175,18.449 
		13.809,18.449 13.809,18.816 13.175,18.816 13.175,19.186 13.833,19.186 	"/>
	<polygon points="14.935,17.719 15.339,17.719 15.339,19.186 15.997,19.186 15.997,19.552 14.935,19.552 	"/>
</g>
</svg>
