<?xml version="1.0" encoding="utf-8"?>
<!-- Generator: Adobe Illustrator 16.0.0, SVG Export Plug-In . SVG Version: 6.00 Build 0)  -->
<!DOCTYPE svg PUBLIC "-//W3C//DTD SVG 1.1//EN" "http://www.w3.org/Graphics/SVG/1.1/DTD/svg11.dtd">
<svg version="1.1" id="Layer_1" xmlns="http://www.w3.org/2000/svg" xmlns:xlink="http://www.w3.org/1999/xlink" x="0px" y="0px"
	 width="25px" height="25px" viewBox="0 0 25 25" enable-background="new 0 0 25 25" xml:space="preserve">
<g>
	<g id="simbolo">
		<path fill="#FFB200" d="M4.189,5.817c0.555-0.303,1.163-0.573,1.816-0.751C6.33,4.971,6.662,4.885,6.996,4.802
			c0.337-0.076,0.679-0.135,1.02-0.2c1.366-0.263,2.741-0.409,3.965-0.791c1.476-0.458,3.068-0.73,4.672-0.775l0.599-0.023
			c0.201-0.002,0.399,0.003,0.602,0.006c0.399,0.007,0.799,0.019,1.195,0.035c0.396,0.033,0.791,0.066,1.181,0.1
			c0.197,0.018,0.391,0.036,0.585,0.055c0.192,0.026,0.385,0.052,0.576,0.078c-0.043,0.308-0.349,0.736-0.119,0.925
			c0.931,0.598,0.821,1.211,0.728,1.826c-0.047,0.307-0.712-0.098-0.52,0.242c-0.354-0.047-0.828-0.078-1.133-0.033
			c-0.304,0.049-0.43,0.154-0.096,0.341c0.196,0.328,1.163,0.156,1.324,0.646c0.157,0.492-0.362,0.892-0.208,1.383
			c0.222,0.023,0.659,0.106,0.877,0.147c0.161,0.346-0.377,0.879-0.164,0.918c0.291,0.216,0.655,0.308,1.047,0.398
			c0.393,0.092,0.818,0.15,1.237,0.246c-0.038,0.151-0.021,0.316-0.054,0.448c-0.017,0.066-0.047,0.124-0.104,0.167
			c-0.051,0.046-0.128,0.078-0.238,0.093c-3.599-0.738-7.365-0.755-11.006-0.235c-3.65,0.519-7.175,1.555-10.52,2.916
			c-0.815,0.21-0.542-0.604-0.152-1.302c-0.127,0.231-0.329-0.19-0.458,0.042c-0.1-0.21-0.138-0.536-0.054-0.875
			c0.042-0.171,0.115-0.344,0.224-0.509c0.11-0.163,0.255-0.322,0.449-0.441c-0.21,0.082-0.41,0.184-0.615,0.278
			c-0.271-0.045-0.195-0.423-0.324-0.706c0.208-0.098,0.417-0.196,0.353-0.339C1.805,9.721,1.678,9.436,1.615,9.294
			c-0.213,0.101-0.64,0.3-0.853,0.401c0.213-0.101,0.426-0.201,0.361-0.341c-0.064-0.142-0.194-0.425-0.26-0.565
			c0.37-0.36,1.167-0.336,1.549-0.668L2.24,7.688c-0.51,0.048-1.135,0.457-1.57,0.676c0.157-0.246,0.094-0.388-0.034-0.671
			c0.151-0.118,0.323-0.191,0.5-0.248c0.179-0.058,0.361-0.103,0.541-0.156c0.36-0.104,0.696-0.258,0.966-0.597
			C2.408,6.774,2.178,6.872,1.948,6.967C1.991,6.74,2.11,6.572,2.277,6.449c0.17-0.119,0.384-0.197,0.612-0.259
			C3.349,6.068,3.853,5.995,4.189,5.817"/>
		<path d="M13.901,12.546l-1.318,0.208c-0.091,0.015-0.152,0.104-0.138,0.191l0.036,0.229c0.014,0.091,0.096,0.152,0.189,0.139
			l1.32-0.209c0.09-0.015,0.152-0.104,0.139-0.19l-0.038-0.23C14.077,12.594,13.995,12.531,13.901,12.546"/>
		<path d="M11.145,7.903c-0.025,0.287-0.25,0.537-0.526,0.581L7.863,8.92C7.593,8.963,7.295,8.797,7.187,8.537L5.596,4.752
			C5.588,4.732,5.539,4.706,5.51,4.71L4.416,4.883L4.328,4.324l1.095-0.173C5.7,4.107,5.997,4.271,6.106,4.533l1.591,3.785
			c0.009,0.02,0.057,0.047,0.077,0.044l2.755-0.437c0.023-0.003,0.059-0.042,0.061-0.073l0.241-2.839l0.565-0.089L11.145,7.903z"/>
		<path d="M7.957,9.479C8.26,9.43,8.545,9.641,8.594,9.95c0.049,0.309-0.156,0.598-0.459,0.646s-0.589-0.164-0.638-0.472
			C7.448,9.815,7.654,9.526,7.957,9.479"/>
		<path d="M10.701,9.043c0.303-0.048,0.588,0.163,0.637,0.472c0.049,0.308-0.157,0.598-0.46,0.646
			c-0.303,0.048-0.588-0.164-0.637-0.472C10.192,9.381,10.397,9.091,10.701,9.043"/>
		<rect x="8.081" y="2.589" transform="matrix(-0.9877 0.1564 -0.1564 -0.9877 23.6905 3.8791)" width="7.224" height="0.566"/>
		<path d="M9.32,10.98l0.442,2.793c0.097,0.614,0.669,1.041,1.276,0.944l4.938-0.782c0.608-0.097,1.021-0.674,0.922-1.292
			L15.128,1.469c-0.097-0.614-0.67-1.04-1.276-0.943L8.915,1.307c-0.609,0.097-1.02,0.675-0.921,1.292l0.353,2.235l0.55-0.086
			L8.542,2.512c-0.049-0.31,0.156-0.598,0.462-0.646l4.938-0.782c0.302-0.048,0.589,0.165,0.639,0.472l1.769,11.174
			c0.05,0.31-0.157,0.598-0.461,0.646l-4.938,0.782c-0.302,0.048-0.59-0.165-0.638-0.472l-0.442-2.793L9.32,10.98z"/>
		<rect x="9.497" y="11.53" transform="matrix(-0.9877 0.1564 -0.1564 -0.9877 27.9041 21.4292)" width="7.224" height="0.566"/>
		<rect x="6.253" y="5.346" transform="matrix(-0.9877 0.1564 -0.1564 -0.9877 18.2798 9.818)" width="5.001" height="0.565"/>
	</g>
	<g>
		<path fill="#231F20" d="M16.724,24.299c0.051,0.066,0.241,0.213,0.533,0.213c0.47,0,0.69-0.301,0.69-0.619
			c0-0.324-0.27-0.5-0.408-0.584c-0.166-0.099-0.227-0.151-0.227-0.249c0-0.083,0.082-0.14,0.176-0.14
			c0.147,0,0.29,0.106,0.311,0.124c0.019,0.016,0.065,0.014,0.087-0.015l0.176-0.213c0.021-0.024,0.009-0.071-0.017-0.094
			c-0.074-0.061-0.262-0.201-0.526-0.201c-0.447,0-0.655,0.285-0.655,0.583c0,0.288,0.239,0.462,0.411,0.577
			c0.12,0.079,0.182,0.154,0.183,0.252c0.003,0.092-0.074,0.169-0.175,0.169c-0.15,0-0.285-0.095-0.32-0.12
			c-0.021-0.015-0.066-0.021-0.09,0.016l-0.148,0.223C16.707,24.246,16.702,24.271,16.724,24.299 M15.216,24.299
			c0.052,0.066,0.241,0.213,0.533,0.213c0.471,0,0.691-0.301,0.691-0.619c0-0.324-0.27-0.5-0.41-0.584
			c-0.166-0.099-0.227-0.151-0.227-0.249c0-0.083,0.084-0.14,0.177-0.14c0.148,0,0.291,0.106,0.31,0.124
			c0.021,0.016,0.067,0.014,0.089-0.015l0.176-0.213c0.021-0.024,0.012-0.071-0.017-0.094c-0.074-0.061-0.265-0.201-0.526-0.201
			c-0.447,0-0.655,0.285-0.655,0.583c0,0.288,0.239,0.462,0.412,0.577c0.119,0.079,0.18,0.154,0.183,0.252
			c0.002,0.092-0.075,0.169-0.179,0.169c-0.146,0-0.283-0.095-0.32-0.12c-0.019-0.015-0.062-0.021-0.086,0.016l-0.15,0.223
			C15.2,24.246,15.192,24.271,15.216,24.299 M13.695,24.432c-0.007,0.027,0.012,0.053,0.037,0.053h1.044
			c0.028,0,0.052-0.025,0.056-0.053l0.041-0.302c0.002-0.027-0.01-0.053-0.038-0.053h-0.659l0.053-0.373h0.533
			c0.026,0,0.05-0.022,0.057-0.052l0.045-0.302c0.002-0.027-0.017-0.052-0.042-0.052h-0.536l0.05-0.345h0.657
			c0.027,0,0.049-0.024,0.053-0.051l0.043-0.303c0.004-0.027-0.015-0.052-0.04-0.052h-1.043c-0.026,0-0.05,0.024-0.052,0.052
			L13.695,24.432z M12.475,23.378l0.061-0.434h0.317c0.1,0,0.15,0.08,0.15,0.177c0,0.136-0.094,0.257-0.225,0.257H12.475z
			 M11.894,24.432c-0.006,0.027,0.011,0.053,0.039,0.053h0.342c0.026,0,0.05-0.025,0.053-0.053l0.099-0.703h0.123l0.226,0.73
			c0.002,0.015,0.02,0.025,0.04,0.025h0.354c0.043,0,0.068-0.044,0.054-0.08l-0.239-0.7c0.281-0.089,0.45-0.336,0.45-0.635
			c0-0.285-0.194-0.521-0.483-0.521h-0.747c-0.024,0-0.049,0.024-0.052,0.052L11.894,24.432z M10.888,23.378l0.058-0.424h0.201
			c0.075,0,0.13,0.075,0.13,0.172c0,0.142-0.094,0.252-0.19,0.252H10.888z M10.307,24.432c-0.003,0.027,0.01,0.053,0.039,0.053
			h0.337c0.025,0,0.054-0.025,0.056-0.053l0.091-0.65h0.227c0.36,0,0.65-0.317,0.65-0.686c0-0.292-0.202-0.547-0.478-0.547h-0.609
			c-0.027,0-0.052,0.024-0.055,0.052L10.307,24.432z M8.388,24.484H8.8c0.014,0,0.036-0.009,0.047-0.025l0.376-0.571h0.005
			l0.225,0.571c0.002,0.008,0.017,0.025,0.038,0.025h0.385c0.039,0,0.069-0.038,0.049-0.078l-0.398-0.9l0.631-0.881
			c0.03-0.034,0.011-0.076-0.031-0.076H9.698c-0.014,0-0.033,0.005-0.044,0.024l-0.339,0.528H9.311l-0.193-0.528
			c-0.006-0.013-0.022-0.024-0.036-0.024H8.684c-0.045,0-0.069,0.042-0.056,0.076l0.384,0.853L8.36,24.406
			C8.33,24.442,8.35,24.484,8.388,24.484 M6.928,24.432c-0.005,0.027,0.011,0.053,0.038,0.053h1.042
			c0.028,0,0.053-0.025,0.056-0.053l0.041-0.302c0.003-0.027-0.011-0.053-0.038-0.053H7.409l0.052-0.373h0.534
			c0.025,0,0.05-0.022,0.056-0.052l0.044-0.302c0.002-0.027-0.017-0.052-0.042-0.052H7.517l0.05-0.345h0.658
			c0.028,0,0.05-0.024,0.052-0.051l0.045-0.303c0.002-0.027-0.014-0.052-0.042-0.052H7.238c-0.025,0-0.05,0.024-0.053,0.052
			L6.928,24.432z"/>
		<g>
			<defs>
				<rect id="SVGID_1_" x="2.528" y="15.513" width="19.944" height="5.207"/>
			</defs>
			<clipPath id="SVGID_2_">
				<use xlink:href="#SVGID_1_"  overflow="visible"/>
			</clipPath>
			<path clip-path="url(#SVGID_2_)" d="M4.526,16.469c0.108,0.057,0.197,0.128,0.262,0.212c0.064,0.083,0.108,0.173,0.132,0.269
				c0.025,0.096,0.037,0.184,0.037,0.257c0,0.083-0.013,0.171-0.041,0.266c-0.025,0.093-0.071,0.183-0.137,0.262
				c-0.067,0.083-0.153,0.15-0.266,0.211c-0.111,0.058-0.253,0.086-0.42,0.086H3.448v-1.647h0.651
				C4.271,16.383,4.415,16.412,4.526,16.469 M5.413,19.092c-0.09-0.146-0.184-0.292-0.279-0.444
				c0.125-0.076,0.234-0.166,0.325-0.268c0.098-0.112,0.18-0.235,0.242-0.367c0.06-0.13,0.105-0.269,0.134-0.41
				c0.028-0.142,0.042-0.284,0.042-0.423c0-0.257-0.045-0.494-0.134-0.703c-0.091-0.207-0.218-0.384-0.381-0.527
				c-0.164-0.142-0.365-0.25-0.597-0.325c-0.232-0.074-0.492-0.111-0.77-0.111H2.564c-0.021,0-0.036,0.016-0.036,0.035v5.06
				c0,0.02,0.015,0.035,0.036,0.035h0.847c0.02,0,0.037-0.016,0.037-0.035V18.9h0.72c0.164,0.249,0.339,0.52,0.523,0.807
				l0.138,0.216c0.144,0.224,0.294,0.46,0.453,0.704c0.007,0.01,0.019,0.016,0.031,0.016h1.019c0.015,0,0.026-0.007,0.033-0.019
				s0.005-0.025-0.002-0.037c-0.125-0.194-0.239-0.376-0.346-0.541c-0.092-0.145-0.182-0.284-0.268-0.423L5.413,19.092z
				 M8.772,19.461c-0.042,0.108-0.103,0.202-0.18,0.28c-0.075,0.078-0.169,0.143-0.275,0.187c-0.107,0.044-0.227,0.066-0.354,0.066
				c-0.128,0-0.247-0.022-0.354-0.066c-0.106-0.046-0.201-0.107-0.276-0.184c-0.077-0.075-0.136-0.169-0.18-0.275
				c-0.042-0.106-0.062-0.224-0.062-0.348c0-0.12,0.02-0.23,0.062-0.335c0.043-0.105,0.102-0.195,0.18-0.274
				c0.076-0.075,0.169-0.136,0.275-0.179c0.108-0.042,0.227-0.063,0.355-0.063c0.128,0,0.246,0.023,0.354,0.067
				c0.107,0.045,0.2,0.104,0.276,0.181c0.077,0.074,0.137,0.164,0.179,0.269c0.043,0.104,0.064,0.213,0.064,0.335
				C8.836,19.242,8.814,19.356,8.772,19.461 M9.545,20.643c0.021,0,0.036-0.016,0.036-0.035v-2.95c0-0.02-0.016-0.036-0.036-0.036
				H8.898c-0.019,0-0.034,0.016-0.036,0.034l-0.02,0.254c-0.01-0.012-0.022-0.025-0.034-0.038c-0.047-0.05-0.112-0.099-0.2-0.147
				c-0.082-0.048-0.182-0.091-0.294-0.126c-0.112-0.035-0.241-0.053-0.386-0.053c-0.213,0-0.418,0.043-0.608,0.131
				c-0.194,0.09-0.36,0.204-0.504,0.352c-0.143,0.146-0.259,0.319-0.344,0.515c-0.083,0.195-0.127,0.404-0.127,0.621
				c0,0.208,0.04,0.407,0.117,0.594c0.079,0.187,0.188,0.353,0.331,0.493c0.141,0.143,0.311,0.258,0.503,0.342
				c0.195,0.086,0.41,0.128,0.64,0.128c0.145,0,0.276-0.017,0.388-0.047c0.116-0.032,0.209-0.068,0.288-0.111
				c0.079-0.04,0.145-0.086,0.196-0.133c0.01-0.009,0.018-0.019,0.028-0.028v0.013v0.194c0,0.02,0.015,0.035,0.036,0.035H9.545z
				 M15.249,20.643c0.019,0,0.035-0.016,0.035-0.035v-2.14c-0.009-0.273-0.11-0.498-0.297-0.668
				c-0.185-0.169-0.439-0.255-0.754-0.255c-0.153,0-0.285,0.02-0.402,0.061c-0.114,0.042-0.216,0.098-0.304,0.169
				c-0.089,0.073-0.169,0.162-0.239,0.257c-0.051,0.073-0.098,0.149-0.141,0.228c-0.049-0.195-0.149-0.359-0.302-0.487
				c-0.179-0.15-0.422-0.227-0.722-0.227c-0.302,0.005-0.544,0.086-0.721,0.241c-0.141,0.126-0.266,0.29-0.367,0.488
				c-0.001-0.016-0.002-0.031-0.004-0.045c-0.005-0.039-0.007-0.078-0.011-0.119l-0.004-0.051c-0.004-0.057-0.009-0.118-0.014-0.182
				l-0.013-0.223c-0.001-0.019-0.018-0.034-0.037-0.034h-0.589c-0.021,0-0.038,0.017-0.038,0.036v2.95
				c0,0.02,0.017,0.035,0.038,0.035h0.666c0.021,0,0.038-0.016,0.038-0.035v-1.422c0-0.267,0.071-0.48,0.217-0.655
				c0.144-0.171,0.342-0.254,0.604-0.254c0.186,0.011,0.324,0.062,0.407,0.158c0.085,0.097,0.131,0.215,0.14,0.347v1.826
				c0,0.02,0.017,0.035,0.036,0.035h0.667c0.021,0,0.035-0.016,0.035-0.035V19.19c0-0.268,0.075-0.488,0.218-0.66
				c0.143-0.169,0.346-0.254,0.605-0.254c0.189,0.011,0.328,0.062,0.412,0.158c0.079,0.096,0.126,0.214,0.136,0.347v1.826
				c0,0.02,0.017,0.035,0.035,0.035H15.249z M18.787,16.315c0.009-0.012,0.011-0.026,0.005-0.041
				c-0.005-0.013-0.02-0.021-0.033-0.021h-0.717c-0.011,0-0.023,0.006-0.029,0.016c-0.108,0.159-0.211,0.315-0.316,0.473
				c-0.103,0.156-0.208,0.312-0.315,0.466c-0.008,0.011-0.008,0.025-0.003,0.038c0.008,0.011,0.019,0.019,0.032,0.019h0.494
				c0.01,0,0.021-0.004,0.028-0.012c0.135-0.147,0.273-0.298,0.412-0.448l0.016-0.017C18.506,16.629,18.646,16.473,18.787,16.315
				 M17.076,19.928c-0.105-0.046-0.199-0.107-0.274-0.184c-0.076-0.075-0.14-0.168-0.185-0.272
				c-0.042-0.105-0.065-0.218-0.065-0.337s0.023-0.229,0.065-0.335c0.047-0.105,0.108-0.194,0.185-0.274
				c0.078-0.075,0.169-0.138,0.274-0.185c0.103-0.047,0.216-0.071,0.334-0.071c0.12,0,0.234,0.024,0.338,0.071
				c0.103,0.045,0.196,0.108,0.273,0.185c0.077,0.08,0.138,0.169,0.185,0.275c0.049,0.103,0.07,0.213,0.07,0.334
				s-0.021,0.234-0.07,0.336c-0.047,0.105-0.11,0.197-0.185,0.273c-0.077,0.076-0.168,0.14-0.273,0.184
				C17.537,20.017,17.284,20.017,17.076,19.928 M18.898,19.745c0.08-0.193,0.117-0.402,0.117-0.616c0-0.216-0.039-0.422-0.119-0.615
				c-0.081-0.191-0.192-0.36-0.332-0.501c-0.139-0.142-0.307-0.255-0.501-0.337c-0.194-0.084-0.407-0.124-0.631-0.124
				c-0.223,0-0.431,0.04-0.628,0.124c-0.198,0.084-0.369,0.197-0.515,0.336c-0.146,0.143-0.264,0.312-0.347,0.502
				c-0.083,0.193-0.121,0.395-0.121,0.615c0,0.237,0.04,0.455,0.126,0.648c0.084,0.194,0.199,0.363,0.344,0.506
				c0.148,0.14,0.319,0.25,0.51,0.323c0.192,0.075,0.403,0.113,0.623,0.113c0.229,0,0.444-0.041,0.639-0.125
				c0.194-0.081,0.362-0.196,0.506-0.341C18.709,20.111,18.821,19.94,18.898,19.745 M22.472,20.607v-2.14
				c-0.01-0.273-0.108-0.498-0.293-0.668c-0.185-0.169-0.435-0.255-0.743-0.255c-0.3,0-0.553,0.079-0.749,0.235
				c-0.166,0.131-0.302,0.296-0.405,0.492c-0.005-0.076-0.012-0.147-0.021-0.214c-0.013-0.107-0.021-0.244-0.031-0.403
				c0-0.018-0.016-0.034-0.034-0.034H19.61c-0.02,0-0.035,0.017-0.035,0.036v2.95c0,0.02,0.016,0.035,0.035,0.035h0.666
				c0.019,0,0.036-0.016,0.036-0.035v-1.422c0-0.131,0.023-0.254,0.065-0.363c0.042-0.111,0.101-0.206,0.18-0.286
				c0.075-0.078,0.168-0.143,0.278-0.189s0.229-0.07,0.355-0.07c0.183,0.011,0.318,0.062,0.402,0.158
				c0.089,0.097,0.136,0.215,0.146,0.347v1.826c0,0.02,0.017,0.035,0.037,0.035h0.657C22.455,20.643,22.472,20.627,22.472,20.607"/>
		</g>
	</g>
</g>
</svg>
